<svg width="708" height="517" viewBox="0 0 708 517" fill="none" xmlns="http://www.w3.org/2000/svg">
<rect opacity="1" x="0.5" y="0.5" width="707" height="516" fill="#000000" stroke="#000000"/>
<path d="M166.5 153C166.5 152.172 165.828 151.5 165 151.5C164.172 151.5 163.5 152.172 163.5 153H165H166.5ZM163.939 216.061C164.525 216.646 165.475 216.646 166.061 216.061L175.607 206.515C176.192 205.929 176.192 204.979 175.607 204.393C175.021 203.808 174.071 203.808 173.485 204.393L165 212.879L156.515 204.393C155.929 203.808 154.979 203.808 154.393 204.393C153.808 204.979 153.808 205.929 154.393 206.515L163.939 216.061ZM165 153H163.5V215H165H166.5V153H165Z" fill="#E50914"/>
<path d="M496.5 214C496.5 214.828 497.172 215.5 498 215.5C498.828 215.5 499.5 214.828 499.5 214L498 214L496.5 214ZM499.061 151.939C498.475 151.354 497.525 151.354 496.939 151.939L487.393 161.485C486.808 162.071 486.808 163.021 487.393 163.607C487.979 164.192 488.929 164.192 489.515 163.607L498 155.121L506.485 163.607C507.071 164.192 508.021 164.192 508.607 163.607C509.192 163.021 509.192 162.071 508.607 161.485L499.061 151.939ZM498 214L499.5 214L499.5 153L498 153L496.5 153L496.5 214L498 214Z" fill="#E50914"/>
<path d="M165.5 318C165.5 317.172 164.828 316.5 164 316.5C163.172 316.5 162.5 317.172 162.5 318H164H165.5ZM162.939 354.061C163.525 354.646 164.475 354.646 165.061 354.061L174.607 344.515C175.192 343.929 175.192 342.979 174.607 342.393C174.021 341.808 173.071 341.808 172.485 342.393L164 350.879L155.515 342.393C154.929 341.808 153.979 341.808 153.393 342.393C152.808 342.979 152.808 343.929 153.393 344.515L162.939 354.061ZM164 318H162.5V353H164H165.5V318H164Z" fill="#E50914"/>
<path d="M500 365.368L501.5 365.368V365.368L500 365.368ZM501.061 316.939C500.475 316.354 499.525 316.354 498.939 316.939L489.393 326.485C488.808 327.071 488.808 328.021 489.393 328.607C489.979 329.192 490.929 329.192 491.515 328.607L500 320.121L508.485 328.607C509.071 329.192 510.021 329.192 510.607 328.607C511.192 328.021 511.192 327.071 510.607 326.485L501.061 316.939ZM295 421.5C294.172 421.5 293.5 422.172 293.5 423C293.5 423.828 294.172 424.5 295 424.5L295 423L295 421.5ZM500 365.368L501.5 365.368L501.5 318L500 318L498.5 318L498.5 365.368L500 365.368ZM500 365.368L498.5 365.368L498.5 411L500 411L501.5 411L501.5 365.368L500 365.368ZM488 423L488 421.5L295 421.5L295 423L295 424.5L488 424.5L488 423ZM500 411L498.5 411C498.5 416.799 493.799 421.5 488 421.5L488 423L488 424.5C495.456 424.5 501.5 418.456 501.5 411L500 411Z" fill="#E50914"/>
<rect x="69" y="72" width="190" height="56" rx="10" fill="white"/>
<circle cx="105.5" cy="100.5" r="16.5" fill="#BF1119"/>
<path d="M101.848 97.656C102.232 97.656 102.605 97.624 102.968 97.56C103.331 97.496 103.656 97.3893 103.944 97.24C104.243 97.0907 104.493 96.8987 104.696 96.664C104.909 96.4293 105.048 96.1413 105.112 95.8H106.6V107H104.6V99.096H101.848V97.656Z" fill="white"/>
<path d="M147.824 92.864H156.008C157.896 92.864 159.312 93.272 160.256 94.088C161.2 94.904 161.672 96.04 161.672 97.496C161.672 98.312 161.552 98.992 161.312 99.536C161.072 100.064 160.792 100.496 160.472 100.832C160.152 101.152 159.832 101.384 159.512 101.528C159.208 101.672 158.984 101.768 158.84 101.816V101.864C159.096 101.896 159.368 101.976 159.656 102.104C159.96 102.232 160.24 102.44 160.496 102.728C160.752 103 160.96 103.36 161.12 103.808C161.296 104.256 161.384 104.816 161.384 105.488C161.384 106.496 161.456 107.416 161.6 108.248C161.76 109.064 162 109.648 162.32 110H159.104C158.88 109.632 158.744 109.224 158.696 108.776C158.664 108.328 158.648 107.896 158.648 107.48C158.648 106.696 158.6 106.024 158.504 105.464C158.408 104.888 158.232 104.416 157.976 104.048C157.72 103.664 157.368 103.384 156.92 103.208C156.488 103.032 155.928 102.944 155.24 102.944H150.824V110H147.824V92.864ZM150.824 100.664H155.744C156.704 100.664 157.432 100.44 157.928 99.992C158.424 99.528 158.672 98.84 158.672 97.928C158.672 97.384 158.592 96.944 158.432 96.608C158.272 96.256 158.048 95.984 157.76 95.792C157.488 95.6 157.168 95.472 156.8 95.408C156.448 95.344 156.08 95.312 155.696 95.312H150.824V100.664ZM172.858 102.704C172.826 102.272 172.73 101.856 172.57 101.456C172.426 101.056 172.218 100.712 171.946 100.424C171.69 100.12 171.37 99.88 170.986 99.704C170.618 99.512 170.202 99.416 169.738 99.416C169.258 99.416 168.818 99.504 168.418 99.68C168.034 99.84 167.698 100.072 167.41 100.376C167.138 100.664 166.914 101.008 166.738 101.408C166.578 101.808 166.49 102.24 166.474 102.704H172.858ZM166.474 104.504C166.474 104.984 166.538 105.448 166.666 105.896C166.81 106.344 167.018 106.736 167.29 107.072C167.562 107.408 167.906 107.68 168.322 107.888C168.738 108.08 169.234 108.176 169.81 108.176C170.61 108.176 171.25 108.008 171.73 107.672C172.226 107.32 172.594 106.8 172.834 106.112H175.426C175.282 106.784 175.034 107.384 174.682 107.912C174.33 108.44 173.906 108.888 173.41 109.256C172.914 109.608 172.354 109.872 171.73 110.048C171.122 110.24 170.482 110.336 169.81 110.336C168.834 110.336 167.97 110.176 167.218 109.856C166.466 109.536 165.826 109.088 165.298 108.512C164.786 107.936 164.394 107.248 164.122 106.448C163.866 105.648 163.738 104.768 163.738 103.808C163.738 102.928 163.874 102.096 164.146 101.312C164.434 100.512 164.834 99.816 165.346 99.224C165.874 98.616 166.506 98.136 167.242 97.784C167.978 97.432 168.81 97.256 169.738 97.256C170.714 97.256 171.586 97.464 172.354 97.88C173.138 98.28 173.786 98.816 174.298 99.488C174.81 100.16 175.178 100.936 175.402 101.816C175.642 102.68 175.706 103.576 175.594 104.504H166.474ZM189.146 109.352C189.146 111.224 188.618 112.616 187.562 113.528C186.522 114.456 185.018 114.92 183.05 114.92C182.426 114.92 181.794 114.856 181.154 114.728C180.53 114.6 179.954 114.384 179.426 114.08C178.914 113.776 178.482 113.376 178.13 112.88C177.778 112.384 177.57 111.776 177.506 111.056H180.242C180.322 111.44 180.458 111.752 180.65 111.992C180.842 112.232 181.066 112.416 181.322 112.544C181.594 112.688 181.89 112.776 182.21 112.808C182.53 112.856 182.866 112.88 183.218 112.88C184.322 112.88 185.13 112.608 185.642 112.064C186.154 111.52 186.41 110.736 186.41 109.712V107.816H186.362C185.978 108.504 185.45 109.04 184.778 109.424C184.122 109.808 183.41 110 182.642 110C181.65 110 180.802 109.832 180.098 109.496C179.41 109.144 178.834 108.672 178.37 108.08C177.922 107.472 177.594 106.776 177.386 105.992C177.178 105.208 177.074 104.368 177.074 103.472C177.074 102.64 177.202 101.848 177.458 101.096C177.714 100.344 178.082 99.688 178.562 99.128C179.042 98.552 179.626 98.096 180.314 97.76C181.018 97.424 181.81 97.256 182.69 97.256C183.474 97.256 184.194 97.424 184.85 97.76C185.506 98.08 186.01 98.592 186.362 99.296H186.41V97.592H189.146V109.352ZM183.074 107.84C183.682 107.84 184.194 107.72 184.61 107.48C185.042 107.224 185.386 106.896 185.642 106.496C185.914 106.08 186.106 105.616 186.218 105.104C186.346 104.576 186.41 104.048 186.41 103.52C186.41 102.992 186.346 102.48 186.218 101.984C186.09 101.488 185.89 101.048 185.618 100.664C185.362 100.28 185.018 99.976 184.586 99.752C184.17 99.528 183.666 99.416 183.074 99.416C182.466 99.416 181.954 99.544 181.538 99.8C181.122 100.056 180.786 100.392 180.53 100.808C180.274 101.208 180.09 101.672 179.978 102.2C179.866 102.712 179.81 103.224 179.81 103.736C179.81 104.248 179.874 104.752 180.002 105.248C180.13 105.728 180.322 106.16 180.578 106.544C180.85 106.928 181.186 107.24 181.586 107.48C182.002 107.72 182.498 107.84 183.074 107.84ZM191.973 92.864H194.709V95.456H191.973V92.864ZM191.973 97.592H194.709V110H191.973V97.592ZM199.754 106.016C199.834 106.816 200.138 107.376 200.666 107.696C201.194 108.016 201.826 108.176 202.562 108.176C202.818 108.176 203.106 108.16 203.426 108.128C203.762 108.08 204.074 108 204.362 107.888C204.65 107.776 204.882 107.616 205.058 107.408C205.25 107.184 205.338 106.896 205.322 106.544C205.306 106.192 205.178 105.904 204.938 105.68C204.698 105.456 204.386 105.28 204.002 105.152C203.634 105.008 203.21 104.888 202.73 104.792C202.25 104.696 201.762 104.592 201.266 104.48C200.754 104.368 200.258 104.232 199.778 104.072C199.314 103.912 198.89 103.696 198.506 103.424C198.138 103.152 197.842 102.808 197.618 102.392C197.394 101.96 197.282 101.432 197.282 100.808C197.282 100.136 197.442 99.576 197.762 99.128C198.098 98.664 198.514 98.296 199.01 98.024C199.522 97.736 200.082 97.536 200.69 97.424C201.314 97.312 201.906 97.256 202.466 97.256C203.106 97.256 203.714 97.328 204.29 97.472C204.882 97.6 205.41 97.816 205.874 98.12C206.354 98.424 206.746 98.824 207.05 99.32C207.37 99.8 207.57 100.384 207.65 101.072H204.794C204.666 100.416 204.362 99.976 203.882 99.752C203.418 99.528 202.882 99.416 202.274 99.416C202.082 99.416 201.85 99.432 201.578 99.464C201.322 99.496 201.074 99.56 200.834 99.656C200.61 99.736 200.418 99.864 200.258 100.04C200.098 100.2 200.018 100.416 200.018 100.688C200.018 101.024 200.13 101.296 200.354 101.504C200.594 101.712 200.898 101.888 201.266 102.032C201.65 102.16 202.082 102.272 202.562 102.368C203.042 102.464 203.538 102.568 204.05 102.68C204.546 102.792 205.034 102.928 205.514 103.088C205.994 103.248 206.418 103.464 206.786 103.736C207.17 104.008 207.474 104.352 207.698 104.768C207.938 105.184 208.058 105.696 208.058 106.304C208.058 107.04 207.89 107.664 207.554 108.176C207.218 108.688 206.778 109.104 206.234 109.424C205.706 109.744 205.114 109.976 204.458 110.12C203.802 110.264 203.154 110.336 202.514 110.336C201.73 110.336 201.002 110.248 200.33 110.072C199.674 109.896 199.098 109.632 198.602 109.28C198.122 108.912 197.738 108.464 197.45 107.936C197.178 107.392 197.034 106.752 197.018 106.016H199.754ZM208.887 97.592H210.951V93.872H213.687V97.592H216.159V99.632H213.687V106.256C213.687 106.544 213.695 106.792 213.711 107C213.743 107.208 213.799 107.384 213.879 107.528C213.975 107.672 214.111 107.784 214.287 107.864C214.463 107.928 214.703 107.96 215.007 107.96C215.199 107.96 215.391 107.96 215.583 107.96C215.775 107.944 215.967 107.912 216.159 107.864V109.976C215.855 110.008 215.559 110.04 215.271 110.072C214.983 110.104 214.687 110.12 214.383 110.12C213.663 110.12 213.079 110.056 212.631 109.928C212.199 109.784 211.855 109.584 211.599 109.328C211.359 109.056 211.191 108.72 211.095 108.32C211.015 107.92 210.967 107.464 210.951 106.952V99.632H208.887V97.592ZM226.648 102.704C226.616 102.272 226.52 101.856 226.36 101.456C226.216 101.056 226.008 100.712 225.736 100.424C225.48 100.12 225.16 99.88 224.776 99.704C224.408 99.512 223.992 99.416 223.528 99.416C223.048 99.416 222.608 99.504 222.208 99.68C221.824 99.84 221.488 100.072 221.2 100.376C220.928 100.664 220.704 101.008 220.528 101.408C220.368 101.808 220.28 102.24 220.264 102.704H226.648ZM220.264 104.504C220.264 104.984 220.328 105.448 220.456 105.896C220.6 106.344 220.808 106.736 221.08 107.072C221.352 107.408 221.696 107.68 222.112 107.888C222.528 108.08 223.024 108.176 223.6 108.176C224.4 108.176 225.04 108.008 225.52 107.672C226.016 107.32 226.384 106.8 226.624 106.112H229.216C229.072 106.784 228.824 107.384 228.472 107.912C228.12 108.44 227.696 108.888 227.2 109.256C226.704 109.608 226.144 109.872 225.52 110.048C224.912 110.24 224.272 110.336 223.6 110.336C222.624 110.336 221.76 110.176 221.008 109.856C220.256 109.536 219.616 109.088 219.088 108.512C218.576 107.936 218.184 107.248 217.912 106.448C217.656 105.648 217.528 104.768 217.528 103.808C217.528 102.928 217.664 102.096 217.936 101.312C218.224 100.512 218.624 99.816 219.136 99.224C219.664 98.616 220.296 98.136 221.032 97.784C221.768 97.432 222.6 97.256 223.528 97.256C224.504 97.256 225.376 97.464 226.144 97.88C226.928 98.28 227.576 98.816 228.088 99.488C228.6 100.16 228.968 100.936 229.192 101.816C229.432 102.68 229.496 103.576 229.384 104.504H220.264ZM231.463 97.592H234.031V99.992H234.079C234.159 99.656 234.311 99.328 234.535 99.008C234.775 98.688 235.055 98.4 235.375 98.144C235.711 97.872 236.079 97.656 236.479 97.496C236.879 97.336 237.287 97.256 237.703 97.256C238.023 97.256 238.239 97.264 238.351 97.28C238.479 97.296 238.607 97.312 238.735 97.328V99.968C238.543 99.936 238.343 99.912 238.135 99.896C237.943 99.864 237.751 99.848 237.559 99.848C237.095 99.848 236.655 99.944 236.239 100.136C235.839 100.312 235.487 100.584 235.183 100.952C234.879 101.304 234.639 101.744 234.463 102.272C234.287 102.8 234.199 103.408 234.199 104.096V110H231.463V97.592Z" fill="black"/>
<rect x="356" y="73" width="278" height="56" rx="10" fill="white"/>
<circle cx="393.5" cy="101.5" r="16.5" fill="#BF1119"/>
<path d="M390.968 96.8H396.76V98.432H392.328L391.752 101.28L391.784 101.312C392.029 101.035 392.339 100.827 392.712 100.688C393.096 100.539 393.475 100.464 393.848 100.464C394.403 100.464 394.899 100.56 395.336 100.752C395.773 100.933 396.141 101.195 396.44 101.536C396.739 101.867 396.963 102.261 397.112 102.72C397.272 103.179 397.352 103.675 397.352 104.208C397.352 104.656 397.277 105.12 397.128 105.6C396.989 106.069 396.76 106.501 396.44 106.896C396.131 107.28 395.731 107.6 395.24 107.856C394.749 108.101 394.163 108.224 393.48 108.224C392.936 108.224 392.429 108.149 391.96 108C391.501 107.861 391.096 107.648 390.744 107.36C390.392 107.072 390.109 106.72 389.896 106.304C389.693 105.877 389.581 105.381 389.56 104.816H391.384C391.437 105.424 391.645 105.893 392.008 106.224C392.371 106.544 392.851 106.704 393.448 106.704C393.832 106.704 394.157 106.64 394.424 106.512C394.691 106.384 394.904 106.208 395.064 105.984C395.235 105.76 395.352 105.499 395.416 105.2C395.491 104.901 395.528 104.581 395.528 104.24C395.528 103.931 395.485 103.637 395.4 103.36C395.315 103.072 395.187 102.821 395.016 102.608C394.845 102.395 394.621 102.224 394.344 102.096C394.077 101.968 393.763 101.904 393.4 101.904C393.016 101.904 392.653 101.979 392.312 102.128C391.981 102.267 391.741 102.533 391.592 102.928H389.768L390.968 96.8Z" fill="white"/>
<path d="M437.792 105.288C437.792 105.944 437.904 106.504 438.128 106.968C438.352 107.432 438.664 107.816 439.064 108.12C439.464 108.408 439.92 108.624 440.432 108.768C440.96 108.896 441.528 108.96 442.136 108.96C442.792 108.96 443.352 108.888 443.816 108.744C444.28 108.584 444.656 108.384 444.944 108.144C445.232 107.904 445.44 107.632 445.568 107.328C445.696 107.008 445.76 106.688 445.76 106.368C445.76 105.712 445.608 105.232 445.304 104.928C445.016 104.608 444.696 104.384 444.344 104.256C443.736 104.032 443.024 103.824 442.208 103.632C441.408 103.424 440.416 103.16 439.232 102.84C438.496 102.648 437.88 102.4 437.384 102.096C436.904 101.776 436.52 101.424 436.232 101.04C435.944 100.656 435.736 100.248 435.608 99.816C435.496 99.384 435.44 98.944 435.44 98.496C435.44 97.632 435.616 96.888 435.968 96.264C436.336 95.624 436.816 95.096 437.408 94.68C438 94.264 438.672 93.96 439.424 93.768C440.176 93.56 440.936 93.456 441.704 93.456C442.6 93.456 443.44 93.576 444.224 93.816C445.024 94.04 445.72 94.384 446.312 94.848C446.92 95.312 447.4 95.888 447.752 96.576C448.104 97.248 448.28 98.032 448.28 98.928H445.28C445.2 97.824 444.824 97.048 444.152 96.6C443.48 96.136 442.624 95.904 441.584 95.904C441.232 95.904 440.872 95.944 440.504 96.024C440.136 96.088 439.8 96.208 439.496 96.384C439.192 96.544 438.936 96.768 438.728 97.056C438.536 97.344 438.44 97.704 438.44 98.136C438.44 98.744 438.624 99.224 438.992 99.576C439.376 99.912 439.872 100.168 440.48 100.344C440.544 100.36 440.792 100.432 441.224 100.56C441.672 100.672 442.168 100.8 442.712 100.944C443.256 101.088 443.784 101.232 444.296 101.376C444.824 101.504 445.2 101.6 445.424 101.664C445.984 101.84 446.472 102.08 446.888 102.384C447.304 102.688 447.648 103.04 447.92 103.44C448.208 103.824 448.416 104.24 448.544 104.688C448.688 105.136 448.76 105.584 448.76 106.032C448.76 106.992 448.56 107.816 448.16 108.504C447.776 109.176 447.264 109.728 446.624 110.16C445.984 110.592 445.256 110.904 444.44 111.096C443.624 111.304 442.792 111.408 441.944 111.408C440.968 111.408 440.048 111.288 439.184 111.048C438.32 110.808 437.568 110.44 436.928 109.944C436.288 109.448 435.776 108.816 435.392 108.048C435.008 107.264 434.808 106.344 434.792 105.288H437.792ZM459.379 102.744C459.267 101.976 458.955 101.4 458.443 101.016C457.947 100.616 457.315 100.416 456.547 100.416C456.195 100.416 455.819 100.48 455.419 100.608C455.019 100.72 454.651 100.944 454.315 101.28C453.979 101.6 453.699 102.056 453.475 102.648C453.251 103.224 453.139 103.984 453.139 104.928C453.139 105.44 453.195 105.952 453.307 106.464C453.435 106.976 453.627 107.432 453.883 107.832C454.155 108.232 454.499 108.56 454.915 108.816C455.331 109.056 455.835 109.176 456.427 109.176C457.227 109.176 457.883 108.928 458.395 108.432C458.923 107.936 459.251 107.24 459.379 106.344H462.115C461.859 107.96 461.243 109.2 460.267 110.064C459.307 110.912 458.027 111.336 456.427 111.336C455.451 111.336 454.587 111.176 453.835 110.856C453.099 110.52 452.475 110.072 451.963 109.512C451.451 108.936 451.059 108.256 450.787 107.472C450.531 106.688 450.403 105.84 450.403 104.928C450.403 104 450.531 103.128 450.787 102.312C451.043 101.496 451.427 100.792 451.939 100.2C452.451 99.592 453.083 99.12 453.835 98.784C454.603 98.432 455.499 98.256 456.523 98.256C457.243 98.256 457.923 98.352 458.563 98.544C459.219 98.72 459.795 98.992 460.291 99.36C460.803 99.728 461.219 100.192 461.539 100.752C461.859 101.312 462.051 101.976 462.115 102.744H459.379ZM470.026 111.336C469.034 111.336 468.146 111.176 467.362 110.856C466.594 110.52 465.938 110.064 465.394 109.488C464.866 108.912 464.458 108.224 464.17 107.424C463.898 106.624 463.762 105.744 463.762 104.784C463.762 103.84 463.898 102.968 464.17 102.168C464.458 101.368 464.866 100.68 465.394 100.104C465.938 99.528 466.594 99.08 467.362 98.76C468.146 98.424 469.034 98.256 470.026 98.256C471.018 98.256 471.898 98.424 472.666 98.76C473.45 99.08 474.106 99.528 474.634 100.104C475.178 100.68 475.586 101.368 475.858 102.168C476.146 102.968 476.29 103.84 476.29 104.784C476.29 105.744 476.146 106.624 475.858 107.424C475.586 108.224 475.178 108.912 474.634 109.488C474.106 110.064 473.45 110.52 472.666 110.856C471.898 111.176 471.018 111.336 470.026 111.336ZM470.026 109.176C470.634 109.176 471.162 109.048 471.61 108.792C472.058 108.536 472.426 108.2 472.714 107.784C473.002 107.368 473.21 106.904 473.338 106.392C473.482 105.864 473.554 105.328 473.554 104.784C473.554 104.256 473.482 103.728 473.338 103.2C473.21 102.672 473.002 102.208 472.714 101.808C472.426 101.392 472.058 101.056 471.61 100.8C471.162 100.544 470.634 100.416 470.026 100.416C469.418 100.416 468.89 100.544 468.442 100.8C467.994 101.056 467.626 101.392 467.338 101.808C467.05 102.208 466.834 102.672 466.69 103.2C466.562 103.728 466.498 104.256 466.498 104.784C466.498 105.328 466.562 105.864 466.69 106.392C466.834 106.904 467.05 107.368 467.338 107.784C467.626 108.2 467.994 108.536 468.442 108.792C468.89 109.048 469.418 109.176 470.026 109.176ZM489.461 111H486.773V109.272H486.725C486.389 109.896 485.885 110.4 485.213 110.784C484.557 111.152 483.885 111.336 483.197 111.336C481.565 111.336 480.381 110.936 479.645 110.136C478.925 109.32 478.565 108.096 478.565 106.464V98.592H481.301V106.2C481.301 107.288 481.509 108.056 481.925 108.504C482.341 108.952 482.925 109.176 483.677 109.176C484.253 109.176 484.733 109.088 485.117 108.912C485.501 108.736 485.813 108.504 486.053 108.216C486.293 107.912 486.461 107.552 486.557 107.136C486.669 106.72 486.725 106.272 486.725 105.792V98.592H489.461V111ZM491.098 98.592H493.162V94.872H495.898V98.592H498.37V100.632H495.898V107.256C495.898 107.544 495.906 107.792 495.922 108C495.954 108.208 496.01 108.384 496.09 108.528C496.186 108.672 496.322 108.784 496.498 108.864C496.674 108.928 496.914 108.96 497.218 108.96C497.41 108.96 497.602 108.96 497.794 108.96C497.986 108.944 498.178 108.912 498.37 108.864V110.976C498.066 111.008 497.77 111.04 497.482 111.072C497.194 111.104 496.898 111.12 496.594 111.12C495.874 111.12 495.29 111.056 494.842 110.928C494.41 110.784 494.066 110.584 493.81 110.328C493.57 110.056 493.402 109.72 493.306 109.32C493.226 108.92 493.178 108.464 493.162 107.952V100.632H491.098V98.592ZM500.41 93.864H503.146V96.456H500.41V93.864ZM500.41 98.592H503.146V111H500.41V98.592ZM506.128 98.592H508.72V100.416L508.768 100.464C509.184 99.776 509.728 99.24 510.4 98.856C511.072 98.456 511.816 98.256 512.632 98.256C513.992 98.256 515.064 98.608 515.848 99.312C516.632 100.016 517.023 101.072 517.023 102.48V111H514.288V103.2C514.256 102.224 514.048 101.52 513.664 101.088C513.28 100.64 512.68 100.416 511.864 100.416C511.4 100.416 510.984 100.504 510.616 100.68C510.248 100.84 509.936 101.072 509.68 101.376C509.424 101.664 509.224 102.008 509.08 102.408C508.936 102.808 508.864 103.232 508.864 103.68V111H506.128V98.592ZM531.381 110.352C531.381 112.224 530.853 113.616 529.797 114.528C528.757 115.456 527.253 115.92 525.285 115.92C524.661 115.92 524.029 115.856 523.389 115.728C522.765 115.6 522.189 115.384 521.661 115.08C521.149 114.776 520.717 114.376 520.365 113.88C520.013 113.384 519.805 112.776 519.741 112.056H522.477C522.557 112.44 522.693 112.752 522.885 112.992C523.077 113.232 523.301 113.416 523.557 113.544C523.829 113.688 524.125 113.776 524.445 113.808C524.765 113.856 525.101 113.88 525.453 113.88C526.557 113.88 527.365 113.608 527.877 113.064C528.389 112.52 528.645 111.736 528.645 110.712V108.816H528.597C528.213 109.504 527.685 110.04 527.013 110.424C526.357 110.808 525.645 111 524.877 111C523.885 111 523.037 110.832 522.333 110.496C521.645 110.144 521.069 109.672 520.605 109.08C520.157 108.472 519.829 107.776 519.621 106.992C519.413 106.208 519.309 105.368 519.309 104.472C519.309 103.64 519.437 102.848 519.693 102.096C519.949 101.344 520.317 100.688 520.797 100.128C521.277 99.552 521.861 99.096 522.549 98.76C523.253 98.424 524.045 98.256 524.925 98.256C525.709 98.256 526.429 98.424 527.085 98.76C527.741 99.08 528.245 99.592 528.597 100.296H528.645V98.592H531.381V110.352ZM525.309 108.84C525.917 108.84 526.429 108.72 526.845 108.48C527.277 108.224 527.621 107.896 527.877 107.496C528.149 107.08 528.341 106.616 528.453 106.104C528.581 105.576 528.645 105.048 528.645 104.52C528.645 103.992 528.581 103.48 528.453 102.984C528.325 102.488 528.125 102.048 527.853 101.664C527.597 101.28 527.253 100.976 526.821 100.752C526.405 100.528 525.901 100.416 525.309 100.416C524.701 100.416 524.189 100.544 523.773 100.8C523.357 101.056 523.021 101.392 522.765 101.808C522.509 102.208 522.325 102.672 522.213 103.2C522.101 103.712 522.045 104.224 522.045 104.736C522.045 105.248 522.109 105.752 522.237 106.248C522.365 106.728 522.557 107.16 522.813 107.544C523.085 107.928 523.421 108.24 523.821 108.48C524.237 108.72 524.733 108.84 525.309 108.84ZM545.735 93.456H548.351L541.463 111.408H538.847L545.735 93.456ZM554.684 93.864H568.556V96.456H563.108V111H560.108V96.456H554.684V93.864ZM567.956 98.592H570.524V100.992H570.572C570.652 100.656 570.804 100.328 571.028 100.008C571.268 99.688 571.548 99.4 571.868 99.144C572.204 98.872 572.572 98.656 572.972 98.496C573.372 98.336 573.78 98.256 574.196 98.256C574.516 98.256 574.732 98.264 574.844 98.28C574.972 98.296 575.1 98.312 575.228 98.328V100.968C575.036 100.936 574.836 100.912 574.628 100.896C574.436 100.864 574.244 100.848 574.052 100.848C573.588 100.848 573.148 100.944 572.732 101.136C572.332 101.312 571.98 101.584 571.676 101.952C571.372 102.304 571.132 102.744 570.956 103.272C570.78 103.8 570.692 104.408 570.692 105.096V111H567.956V98.592ZM576.465 93.864H579.201V96.456H576.465V93.864ZM576.465 98.592H579.201V111H576.465V98.592ZM592.574 108.24C592.574 108.576 592.614 108.816 592.694 108.96C592.79 109.104 592.966 109.176 593.222 109.176C593.302 109.176 593.398 109.176 593.51 109.176C593.622 109.176 593.75 109.16 593.894 109.128V111.024C593.798 111.056 593.67 111.088 593.51 111.12C593.366 111.168 593.214 111.208 593.054 111.24C592.894 111.272 592.734 111.296 592.574 111.312C592.414 111.328 592.278 111.336 592.166 111.336C591.606 111.336 591.142 111.224 590.774 111C590.406 110.776 590.166 110.384 590.054 109.824C589.51 110.352 588.838 110.736 588.038 110.976C587.254 111.216 586.494 111.336 585.758 111.336C585.198 111.336 584.662 111.256 584.15 111.096C583.638 110.952 583.182 110.736 582.782 110.448C582.398 110.144 582.086 109.768 581.846 109.32C581.622 108.856 581.51 108.32 581.51 107.712C581.51 106.944 581.646 106.32 581.918 105.84C582.206 105.36 582.574 104.984 583.022 104.712C583.486 104.44 583.998 104.248 584.558 104.136C585.134 104.008 585.71 103.912 586.286 103.848C586.782 103.752 587.254 103.688 587.702 103.656C588.15 103.608 588.542 103.536 588.878 103.44C589.23 103.344 589.502 103.2 589.694 103.008C589.902 102.8 590.006 102.496 590.006 102.096C590.006 101.744 589.918 101.456 589.742 101.232C589.582 101.008 589.374 100.84 589.118 100.728C588.878 100.6 588.606 100.52 588.302 100.488C587.998 100.44 587.71 100.416 587.438 100.416C586.67 100.416 586.038 100.576 585.542 100.896C585.046 101.216 584.766 101.712 584.702 102.384H581.966C582.014 101.584 582.206 100.92 582.542 100.392C582.878 99.864 583.302 99.44 583.814 99.12C584.342 98.8 584.934 98.576 585.59 98.448C586.246 98.32 586.918 98.256 587.606 98.256C588.214 98.256 588.814 98.32 589.406 98.448C589.998 98.576 590.526 98.784 590.99 99.072C591.47 99.36 591.854 99.736 592.142 100.2C592.43 100.648 592.574 101.2 592.574 101.856V108.24ZM589.838 104.784C589.422 105.056 588.91 105.224 588.302 105.288C587.694 105.336 587.086 105.416 586.478 105.528C586.19 105.576 585.91 105.648 585.638 105.744C585.366 105.824 585.126 105.944 584.918 106.104C584.71 106.248 584.542 106.448 584.414 106.704C584.302 106.944 584.246 107.24 584.246 107.592C584.246 107.896 584.334 108.152 584.51 108.36C584.686 108.568 584.894 108.736 585.134 108.864C585.39 108.976 585.662 109.056 585.95 109.104C586.254 109.152 586.526 109.176 586.766 109.176C587.07 109.176 587.398 109.136 587.75 109.056C588.102 108.976 588.43 108.84 588.734 108.648C589.054 108.456 589.318 108.216 589.526 107.928C589.734 107.624 589.838 107.256 589.838 106.824V104.784ZM595.59 93.864H598.326V111H595.59V93.864ZM603.371 107.016C603.451 107.816 603.755 108.376 604.283 108.696C604.811 109.016 605.443 109.176 606.179 109.176C606.435 109.176 606.723 109.16 607.043 109.128C607.379 109.08 607.691 109 607.979 108.888C608.267 108.776 608.499 108.616 608.675 108.408C608.867 108.184 608.955 107.896 608.939 107.544C608.923 107.192 608.795 106.904 608.555 106.68C608.315 106.456 608.003 106.28 607.619 106.152C607.251 106.008 606.827 105.888 606.347 105.792C605.867 105.696 605.379 105.592 604.883 105.48C604.371 105.368 603.875 105.232 603.395 105.072C602.931 104.912 602.507 104.696 602.123 104.424C601.755 104.152 601.459 103.808 601.235 103.392C601.011 102.96 600.899 102.432 600.899 101.808C600.899 101.136 601.059 100.576 601.379 100.128C601.715 99.664 602.131 99.296 602.627 99.024C603.139 98.736 603.699 98.536 604.307 98.424C604.931 98.312 605.523 98.256 606.083 98.256C606.723 98.256 607.331 98.328 607.907 98.472C608.499 98.6 609.027 98.816 609.491 99.12C609.971 99.424 610.363 99.824 610.667 100.32C610.987 100.8 611.187 101.384 611.267 102.072H608.411C608.283 101.416 607.979 100.976 607.499 100.752C607.035 100.528 606.499 100.416 605.891 100.416C605.699 100.416 605.467 100.432 605.195 100.464C604.939 100.496 604.691 100.56 604.451 100.656C604.227 100.736 604.035 100.864 603.875 101.04C603.715 101.2 603.635 101.416 603.635 101.688C603.635 102.024 603.747 102.296 603.971 102.504C604.211 102.712 604.515 102.888 604.883 103.032C605.267 103.16 605.699 103.272 606.179 103.368C606.659 103.464 607.155 103.568 607.667 103.68C608.163 103.792 608.651 103.928 609.131 104.088C609.611 104.248 610.035 104.464 610.403 104.736C610.787 105.008 611.091 105.352 611.315 105.768C611.555 106.184 611.675 106.696 611.675 107.304C611.675 108.04 611.507 108.664 611.171 109.176C610.835 109.688 610.395 110.104 609.851 110.424C609.323 110.744 608.731 110.976 608.075 111.12C607.419 111.264 606.771 111.336 606.131 111.336C605.347 111.336 604.619 111.248 603.947 111.072C603.291 110.896 602.715 110.632 602.219 110.28C601.739 109.912 601.355 109.464 601.067 108.936C600.795 108.392 600.651 107.752 600.635 107.016H603.371Z" fill="black"/>
<rect x="340" y="237" width="317" height="56" rx="10" fill="white"/>
<circle cx="372.5" cy="265.5" r="16.5" fill="#BF1119"/>
<path d="M369.792 267.904H373.184V262.976H373.152L369.792 267.904ZM376.352 269.344H374.912V272H373.184V269.344H368.384V267.536L373.184 260.8H374.912V267.904H376.352V269.344Z" fill="white"/>
<path d="M414.824 257.864H426.656V260.456H417.824V264.944H425.576V267.392H417.824V275H414.824V257.864ZM437.187 267.704C437.155 267.272 437.059 266.856 436.899 266.456C436.755 266.056 436.547 265.712 436.275 265.424C436.019 265.12 435.699 264.88 435.315 264.704C434.947 264.512 434.531 264.416 434.067 264.416C433.587 264.416 433.147 264.504 432.747 264.68C432.363 264.84 432.027 265.072 431.739 265.376C431.467 265.664 431.243 266.008 431.067 266.408C430.907 266.808 430.819 267.24 430.803 267.704H437.187ZM430.803 269.504C430.803 269.984 430.867 270.448 430.995 270.896C431.139 271.344 431.347 271.736 431.619 272.072C431.891 272.408 432.235 272.68 432.651 272.888C433.067 273.08 433.563 273.176 434.139 273.176C434.939 273.176 435.579 273.008 436.059 272.672C436.555 272.32 436.923 271.8 437.163 271.112H439.755C439.611 271.784 439.363 272.384 439.011 272.912C438.659 273.44 438.235 273.888 437.739 274.256C437.243 274.608 436.683 274.872 436.059 275.048C435.451 275.24 434.811 275.336 434.139 275.336C433.163 275.336 432.299 275.176 431.547 274.856C430.795 274.536 430.155 274.088 429.627 273.512C429.115 272.936 428.723 272.248 428.451 271.448C428.195 270.648 428.067 269.768 428.067 268.808C428.067 267.928 428.203 267.096 428.475 266.312C428.763 265.512 429.163 264.816 429.675 264.224C430.203 263.616 430.835 263.136 431.571 262.784C432.307 262.432 433.139 262.256 434.067 262.256C435.043 262.256 435.915 262.464 436.683 262.88C437.467 263.28 438.115 263.816 438.627 264.488C439.139 265.16 439.507 265.936 439.731 266.816C439.971 267.68 440.035 268.576 439.923 269.504H430.803ZM450.523 267.704C450.491 267.272 450.395 266.856 450.235 266.456C450.091 266.056 449.883 265.712 449.611 265.424C449.355 265.12 449.035 264.88 448.651 264.704C448.283 264.512 447.867 264.416 447.403 264.416C446.923 264.416 446.483 264.504 446.083 264.68C445.699 264.84 445.363 265.072 445.075 265.376C444.803 265.664 444.579 266.008 444.403 266.408C444.243 266.808 444.155 267.24 444.139 267.704H450.523ZM444.139 269.504C444.139 269.984 444.203 270.448 444.331 270.896C444.475 271.344 444.683 271.736 444.955 272.072C445.227 272.408 445.571 272.68 445.987 272.888C446.403 273.08 446.899 273.176 447.475 273.176C448.275 273.176 448.915 273.008 449.395 272.672C449.891 272.32 450.259 271.8 450.499 271.112H453.091C452.947 271.784 452.699 272.384 452.347 272.912C451.995 273.44 451.571 273.888 451.075 274.256C450.579 274.608 450.019 274.872 449.395 275.048C448.787 275.24 448.147 275.336 447.475 275.336C446.499 275.336 445.635 275.176 444.883 274.856C444.131 274.536 443.491 274.088 442.963 273.512C442.451 272.936 442.059 272.248 441.787 271.448C441.531 270.648 441.403 269.768 441.403 268.808C441.403 267.928 441.539 267.096 441.811 266.312C442.099 265.512 442.499 264.816 443.011 264.224C443.539 263.616 444.171 263.136 444.907 262.784C445.643 262.432 446.475 262.256 447.403 262.256C448.379 262.256 449.251 262.464 450.019 262.88C450.803 263.28 451.451 263.816 451.963 264.488C452.475 265.16 452.843 265.936 453.067 266.816C453.307 267.68 453.371 268.576 453.259 269.504H444.139ZM467.026 275H464.434V273.32H464.386C464.018 274.04 463.482 274.56 462.778 274.88C462.074 275.184 461.33 275.336 460.546 275.336C459.57 275.336 458.714 275.168 457.978 274.832C457.258 274.48 456.658 274.008 456.178 273.416C455.698 272.824 455.338 272.128 455.098 271.328C454.858 270.512 454.738 269.64 454.738 268.712C454.738 267.592 454.89 266.624 455.194 265.808C455.498 264.992 455.898 264.32 456.394 263.792C456.906 263.264 457.482 262.88 458.122 262.64C458.778 262.384 459.442 262.256 460.114 262.256C460.498 262.256 460.89 262.296 461.29 262.376C461.69 262.44 462.074 262.552 462.442 262.712C462.81 262.872 463.146 263.08 463.45 263.336C463.77 263.576 464.034 263.864 464.242 264.2H464.29V257.864H467.026V275ZM457.474 268.928C457.474 269.456 457.538 269.976 457.666 270.488C457.81 271 458.018 271.456 458.29 271.856C458.578 272.256 458.938 272.576 459.37 272.816C459.802 273.056 460.314 273.176 460.906 273.176C461.514 273.176 462.034 273.048 462.466 272.792C462.914 272.536 463.274 272.2 463.546 271.784C463.834 271.368 464.042 270.904 464.17 270.392C464.314 269.864 464.386 269.328 464.386 268.784C464.386 267.408 464.074 266.336 463.45 265.568C462.842 264.8 462.01 264.416 460.954 264.416C460.314 264.416 459.77 264.552 459.322 264.824C458.89 265.08 458.53 265.424 458.242 265.856C457.97 266.272 457.77 266.752 457.642 267.296C457.53 267.824 457.474 268.368 457.474 268.928ZM470.082 257.864H472.818V264.2H472.866C473.058 263.896 473.29 263.624 473.562 263.384C473.834 263.144 474.13 262.944 474.45 262.784C474.786 262.608 475.13 262.48 475.482 262.4C475.85 262.304 476.21 262.256 476.562 262.256C477.538 262.256 478.386 262.432 479.106 262.784C479.842 263.12 480.45 263.592 480.93 264.2C481.41 264.792 481.77 265.488 482.01 266.288C482.25 267.088 482.37 267.944 482.37 268.856C482.37 269.688 482.258 270.496 482.034 271.28C481.826 272.064 481.498 272.76 481.05 273.368C480.618 273.96 480.066 274.44 479.394 274.808C478.722 275.16 477.93 275.336 477.018 275.336C476.602 275.336 476.178 275.304 475.746 275.24C475.33 275.192 474.93 275.088 474.546 274.928C474.162 274.768 473.81 274.56 473.49 274.304C473.186 274.048 472.93 273.712 472.722 273.296H472.674V275H470.082V257.864ZM479.634 268.808C479.634 268.248 479.562 267.704 479.418 267.176C479.274 266.648 479.058 266.184 478.77 265.784C478.482 265.368 478.122 265.04 477.69 264.8C477.258 264.544 476.762 264.416 476.202 264.416C475.05 264.416 474.178 264.816 473.586 265.616C473.01 266.416 472.722 267.48 472.722 268.808C472.722 269.432 472.794 270.016 472.938 270.56C473.098 271.088 473.33 271.544 473.634 271.928C473.938 272.312 474.298 272.616 474.714 272.84C475.146 273.064 475.642 273.176 476.202 273.176C476.826 273.176 477.354 273.048 477.786 272.792C478.218 272.536 478.57 272.208 478.842 271.808C479.13 271.392 479.33 270.928 479.442 270.416C479.57 269.888 479.634 269.352 479.634 268.808ZM495.074 272.24C495.074 272.576 495.114 272.816 495.194 272.96C495.29 273.104 495.466 273.176 495.722 273.176C495.802 273.176 495.898 273.176 496.01 273.176C496.122 273.176 496.25 273.16 496.394 273.128V275.024C496.298 275.056 496.17 275.088 496.01 275.12C495.866 275.168 495.714 275.208 495.554 275.24C495.394 275.272 495.234 275.296 495.074 275.312C494.914 275.328 494.778 275.336 494.666 275.336C494.106 275.336 493.642 275.224 493.274 275C492.906 274.776 492.666 274.384 492.554 273.824C492.01 274.352 491.338 274.736 490.538 274.976C489.754 275.216 488.994 275.336 488.258 275.336C487.698 275.336 487.162 275.256 486.65 275.096C486.138 274.952 485.682 274.736 485.282 274.448C484.898 274.144 484.586 273.768 484.346 273.32C484.122 272.856 484.01 272.32 484.01 271.712C484.01 270.944 484.146 270.32 484.418 269.84C484.706 269.36 485.074 268.984 485.522 268.712C485.986 268.44 486.498 268.248 487.058 268.136C487.634 268.008 488.21 267.912 488.786 267.848C489.282 267.752 489.754 267.688 490.202 267.656C490.65 267.608 491.042 267.536 491.378 267.44C491.73 267.344 492.002 267.2 492.194 267.008C492.402 266.8 492.506 266.496 492.506 266.096C492.506 265.744 492.418 265.456 492.242 265.232C492.082 265.008 491.874 264.84 491.618 264.728C491.378 264.6 491.106 264.52 490.802 264.488C490.498 264.44 490.21 264.416 489.938 264.416C489.17 264.416 488.538 264.576 488.042 264.896C487.546 265.216 487.266 265.712 487.202 266.384H484.466C484.514 265.584 484.706 264.92 485.042 264.392C485.378 263.864 485.802 263.44 486.314 263.12C486.842 262.8 487.434 262.576 488.09 262.448C488.746 262.32 489.418 262.256 490.106 262.256C490.714 262.256 491.314 262.32 491.906 262.448C492.498 262.576 493.026 262.784 493.49 263.072C493.97 263.36 494.354 263.736 494.642 264.2C494.93 264.648 495.074 265.2 495.074 265.856V272.24ZM492.338 268.784C491.922 269.056 491.41 269.224 490.802 269.288C490.194 269.336 489.586 269.416 488.978 269.528C488.69 269.576 488.41 269.648 488.138 269.744C487.866 269.824 487.626 269.944 487.418 270.104C487.21 270.248 487.042 270.448 486.914 270.704C486.802 270.944 486.746 271.24 486.746 271.592C486.746 271.896 486.834 272.152 487.01 272.36C487.186 272.568 487.394 272.736 487.634 272.864C487.89 272.976 488.162 273.056 488.45 273.104C488.754 273.152 489.026 273.176 489.266 273.176C489.57 273.176 489.898 273.136 490.25 273.056C490.602 272.976 490.93 272.84 491.234 272.648C491.554 272.456 491.818 272.216 492.026 271.928C492.234 271.624 492.338 271.256 492.338 270.824V268.784ZM506.394 266.744C506.282 265.976 505.97 265.4 505.458 265.016C504.962 264.616 504.33 264.416 503.562 264.416C503.21 264.416 502.834 264.48 502.434 264.608C502.034 264.72 501.666 264.944 501.33 265.28C500.994 265.6 500.714 266.056 500.49 266.648C500.266 267.224 500.154 267.984 500.154 268.928C500.154 269.44 500.21 269.952 500.322 270.464C500.45 270.976 500.642 271.432 500.898 271.832C501.17 272.232 501.514 272.56 501.93 272.816C502.346 273.056 502.85 273.176 503.442 273.176C504.242 273.176 504.898 272.928 505.41 272.432C505.938 271.936 506.266 271.24 506.394 270.344H509.13C508.874 271.96 508.258 273.2 507.282 274.064C506.322 274.912 505.042 275.336 503.442 275.336C502.466 275.336 501.602 275.176 500.85 274.856C500.114 274.52 499.49 274.072 498.978 273.512C498.466 272.936 498.074 272.256 497.802 271.472C497.546 270.688 497.418 269.84 497.418 268.928C497.418 268 497.546 267.128 497.802 266.312C498.058 265.496 498.442 264.792 498.954 264.2C499.466 263.592 500.098 263.12 500.85 262.784C501.618 262.432 502.514 262.256 503.538 262.256C504.258 262.256 504.938 262.352 505.578 262.544C506.234 262.72 506.81 262.992 507.306 263.36C507.818 263.728 508.234 264.192 508.554 264.752C508.874 265.312 509.066 265.976 509.13 266.744H506.394ZM511.426 257.864H514.162V267.608L519.106 262.592H522.466L517.714 267.152L522.922 275H519.586L515.794 268.976L514.162 270.56V275H511.426V257.864ZM540.452 273.08C539.812 273.864 539.1 274.44 538.316 274.808C537.548 275.16 536.66 275.336 535.652 275.336C534.868 275.336 534.14 275.224 533.468 275C532.812 274.76 532.244 274.424 531.764 273.992C531.284 273.56 530.908 273.032 530.636 272.408C530.38 271.768 530.252 271.048 530.252 270.248C530.252 269.64 530.364 269.088 530.588 268.592C530.812 268.096 531.108 267.648 531.476 267.248C531.844 266.832 532.26 266.464 532.724 266.144C533.204 265.824 533.692 265.536 534.188 265.28C533.964 264.992 533.748 264.712 533.54 264.44C533.332 264.152 533.148 263.856 532.988 263.552C532.828 263.248 532.7 262.928 532.604 262.592C532.508 262.256 532.46 261.904 532.46 261.536C532.46 260.912 532.564 260.352 532.772 259.856C532.996 259.36 533.3 258.936 533.684 258.584C534.068 258.216 534.516 257.936 535.028 257.744C535.54 257.552 536.084 257.456 536.66 257.456C537.204 257.456 537.732 257.544 538.244 257.72C538.772 257.88 539.228 258.136 539.612 258.488C540.012 258.824 540.332 259.248 540.572 259.76C540.812 260.272 540.932 260.872 540.932 261.56C540.932 262.072 540.844 262.544 540.668 262.976C540.508 263.408 540.284 263.808 539.996 264.176C539.724 264.528 539.396 264.848 539.012 265.136C538.644 265.424 538.252 265.68 537.836 265.904L540.5 269.12C540.596 268.848 540.692 268.536 540.788 268.184C540.884 267.832 540.964 267.376 541.028 266.816H543.428C543.348 267.568 543.196 268.304 542.972 269.024C542.764 269.744 542.468 270.408 542.084 271.016L545.372 275H542.012L540.452 273.08ZM535.628 267.08C535.372 267.24 535.092 267.4 534.788 267.56C534.484 267.72 534.196 267.92 533.924 268.16C533.668 268.4 533.444 268.688 533.252 269.024C533.076 269.36 532.988 269.784 532.988 270.296C532.988 271.224 533.244 271.936 533.756 272.432C534.284 272.928 534.948 273.176 535.748 273.176C536.244 273.176 536.668 273.112 537.02 272.984C537.372 272.84 537.668 272.672 537.908 272.48C538.164 272.288 538.372 272.08 538.532 271.856C538.708 271.632 538.86 271.432 538.988 271.256L535.628 267.08ZM536.732 259.496C536.22 259.496 535.788 259.672 535.436 260.024C535.084 260.36 534.908 260.816 534.908 261.392C534.908 261.68 534.956 261.952 535.052 262.208C535.164 262.448 535.292 262.688 535.436 262.928C535.596 263.152 535.764 263.376 535.94 263.6C536.132 263.824 536.308 264.04 536.468 264.248C536.724 264.072 536.972 263.896 537.212 263.72C537.452 263.528 537.668 263.328 537.86 263.12C538.052 262.896 538.204 262.648 538.316 262.376C538.428 262.104 538.484 261.8 538.484 261.464C538.484 260.904 538.324 260.44 538.004 260.072C537.684 259.688 537.26 259.496 536.732 259.496ZM553.551 257.864H561.735C563.623 257.864 565.039 258.272 565.983 259.088C566.927 259.904 567.399 261.04 567.399 262.496C567.399 263.312 567.279 263.992 567.039 264.536C566.799 265.064 566.519 265.496 566.199 265.832C565.879 266.152 565.559 266.384 565.239 266.528C564.935 266.672 564.711 266.768 564.567 266.816V266.864C564.823 266.896 565.095 266.976 565.383 267.104C565.687 267.232 565.967 267.44 566.223 267.728C566.479 268 566.687 268.36 566.847 268.808C567.023 269.256 567.111 269.816 567.111 270.488C567.111 271.496 567.183 272.416 567.327 273.248C567.487 274.064 567.727 274.648 568.047 275H564.831C564.607 274.632 564.471 274.224 564.423 273.776C564.391 273.328 564.375 272.896 564.375 272.48C564.375 271.696 564.327 271.024 564.231 270.464C564.135 269.888 563.959 269.416 563.703 269.048C563.447 268.664 563.095 268.384 562.647 268.208C562.215 268.032 561.655 267.944 560.967 267.944H556.551V275H553.551V257.864ZM556.551 265.664H561.471C562.431 265.664 563.159 265.44 563.655 264.992C564.151 264.528 564.399 263.84 564.399 262.928C564.399 262.384 564.319 261.944 564.159 261.608C563.999 261.256 563.775 260.984 563.487 260.792C563.215 260.6 562.895 260.472 562.527 260.408C562.175 260.344 561.807 260.312 561.423 260.312H556.551V265.664ZM578.585 267.704C578.553 267.272 578.457 266.856 578.297 266.456C578.153 266.056 577.945 265.712 577.673 265.424C577.417 265.12 577.097 264.88 576.713 264.704C576.345 264.512 575.929 264.416 575.465 264.416C574.985 264.416 574.545 264.504 574.145 264.68C573.761 264.84 573.425 265.072 573.137 265.376C572.865 265.664 572.641 266.008 572.465 266.408C572.305 266.808 572.217 267.24 572.201 267.704H578.585ZM572.201 269.504C572.201 269.984 572.265 270.448 572.393 270.896C572.537 271.344 572.745 271.736 573.017 272.072C573.289 272.408 573.633 272.68 574.049 272.888C574.465 273.08 574.961 273.176 575.537 273.176C576.337 273.176 576.977 273.008 577.457 272.672C577.953 272.32 578.321 271.8 578.561 271.112H581.153C581.009 271.784 580.761 272.384 580.409 272.912C580.057 273.44 579.633 273.888 579.137 274.256C578.641 274.608 578.081 274.872 577.457 275.048C576.849 275.24 576.209 275.336 575.537 275.336C574.561 275.336 573.697 275.176 572.945 274.856C572.193 274.536 571.553 274.088 571.025 273.512C570.513 272.936 570.121 272.248 569.849 271.448C569.593 270.648 569.465 269.768 569.465 268.808C569.465 267.928 569.601 267.096 569.873 266.312C570.161 265.512 570.561 264.816 571.073 264.224C571.601 263.616 572.233 263.136 572.969 262.784C573.705 262.432 574.537 262.256 575.465 262.256C576.441 262.256 577.313 262.464 578.081 262.88C578.865 263.28 579.513 263.816 580.025 264.488C580.537 265.16 580.905 265.936 581.129 266.816C581.369 267.68 581.433 268.576 581.321 269.504H572.201ZM583.473 262.592H586.065V264.272H586.113C586.497 263.552 587.033 263.04 587.721 262.736C588.409 262.416 589.153 262.256 589.953 262.256C590.929 262.256 591.777 262.432 592.497 262.784C593.233 263.12 593.841 263.592 594.321 264.2C594.801 264.792 595.161 265.488 595.401 266.288C595.641 267.088 595.761 267.944 595.761 268.856C595.761 269.688 595.649 270.496 595.425 271.28C595.217 272.064 594.889 272.76 594.441 273.368C594.009 273.96 593.457 274.44 592.785 274.808C592.113 275.16 591.321 275.336 590.409 275.336C590.009 275.336 589.609 275.296 589.209 275.216C588.809 275.152 588.425 275.04 588.057 274.88C587.689 274.72 587.345 274.52 587.025 274.28C586.721 274.024 586.465 273.728 586.257 273.392H586.209V279.584H583.473V262.592ZM593.025 268.808C593.025 268.248 592.953 267.704 592.809 267.176C592.665 266.648 592.449 266.184 592.161 265.784C591.873 265.368 591.513 265.04 591.081 264.8C590.649 264.544 590.153 264.416 589.593 264.416C588.441 264.416 587.569 264.816 586.977 265.616C586.401 266.416 586.113 267.48 586.113 268.808C586.113 269.432 586.185 270.016 586.329 270.56C586.489 271.088 586.721 271.544 587.025 271.928C587.329 272.312 587.689 272.616 588.105 272.84C588.537 273.064 589.033 273.176 589.593 273.176C590.217 273.176 590.745 273.048 591.177 272.792C591.609 272.536 591.961 272.208 592.233 271.808C592.521 271.392 592.721 270.928 592.833 270.416C592.961 269.888 593.025 269.352 593.025 268.808ZM603.761 275.336C602.769 275.336 601.881 275.176 601.097 274.856C600.329 274.52 599.673 274.064 599.129 273.488C598.601 272.912 598.193 272.224 597.905 271.424C597.633 270.624 597.497 269.744 597.497 268.784C597.497 267.84 597.633 266.968 597.905 266.168C598.193 265.368 598.601 264.68 599.129 264.104C599.673 263.528 600.329 263.08 601.097 262.76C601.881 262.424 602.769 262.256 603.761 262.256C604.753 262.256 605.633 262.424 606.401 262.76C607.185 263.08 607.841 263.528 608.369 264.104C608.913 264.68 609.321 265.368 609.593 266.168C609.881 266.968 610.025 267.84 610.025 268.784C610.025 269.744 609.881 270.624 609.593 271.424C609.321 272.224 608.913 272.912 608.369 273.488C607.841 274.064 607.185 274.52 606.401 274.856C605.633 275.176 604.753 275.336 603.761 275.336ZM603.761 273.176C604.369 273.176 604.897 273.048 605.345 272.792C605.793 272.536 606.161 272.2 606.449 271.784C606.737 271.368 606.945 270.904 607.073 270.392C607.217 269.864 607.289 269.328 607.289 268.784C607.289 268.256 607.217 267.728 607.073 267.2C606.945 266.672 606.737 266.208 606.449 265.808C606.161 265.392 605.793 265.056 605.345 264.8C604.897 264.544 604.369 264.416 603.761 264.416C603.153 264.416 602.625 264.544 602.177 264.8C601.729 265.056 601.361 265.392 601.073 265.808C600.785 266.208 600.569 266.672 600.425 267.2C600.297 267.728 600.233 268.256 600.233 268.784C600.233 269.328 600.297 269.864 600.425 270.392C600.569 270.904 600.785 271.368 601.073 271.784C601.361 272.2 601.729 272.536 602.177 272.792C602.625 273.048 603.153 273.176 603.761 273.176ZM612.299 262.592H614.867V264.992H614.915C614.995 264.656 615.147 264.328 615.371 264.008C615.611 263.688 615.891 263.4 616.211 263.144C616.547 262.872 616.915 262.656 617.315 262.496C617.715 262.336 618.123 262.256 618.539 262.256C618.859 262.256 619.075 262.264 619.187 262.28C619.315 262.296 619.443 262.312 619.571 262.328V264.968C619.379 264.936 619.179 264.912 618.971 264.896C618.779 264.864 618.587 264.848 618.395 264.848C617.931 264.848 617.491 264.944 617.075 265.136C616.675 265.312 616.323 265.584 616.019 265.952C615.715 266.304 615.475 266.744 615.299 267.272C615.123 267.8 615.035 268.408 615.035 269.096V275H612.299V262.592ZM619.489 262.592H621.553V258.872H624.289V262.592H626.761V264.632H624.289V271.256C624.289 271.544 624.297 271.792 624.313 272C624.345 272.208 624.401 272.384 624.481 272.528C624.577 272.672 624.713 272.784 624.889 272.864C625.065 272.928 625.305 272.96 625.609 272.96C625.801 272.96 625.993 272.96 626.185 272.96C626.377 272.944 626.569 272.912 626.761 272.864V274.976C626.457 275.008 626.161 275.04 625.873 275.072C625.585 275.104 625.289 275.12 624.985 275.12C624.265 275.12 623.681 275.056 623.233 274.928C622.801 274.784 622.457 274.584 622.201 274.328C621.961 274.056 621.793 273.72 621.697 273.32C621.617 272.92 621.569 272.464 621.553 271.952V264.632H619.489V262.592ZM630.793 271.016C630.873 271.816 631.177 272.376 631.705 272.696C632.233 273.016 632.865 273.176 633.601 273.176C633.857 273.176 634.145 273.16 634.465 273.128C634.801 273.08 635.113 273 635.401 272.888C635.689 272.776 635.921 272.616 636.097 272.408C636.289 272.184 636.377 271.896 636.361 271.544C636.345 271.192 636.217 270.904 635.977 270.68C635.737 270.456 635.425 270.28 635.041 270.152C634.673 270.008 634.249 269.888 633.769 269.792C633.289 269.696 632.801 269.592 632.305 269.48C631.793 269.368 631.297 269.232 630.817 269.072C630.353 268.912 629.929 268.696 629.545 268.424C629.177 268.152 628.881 267.808 628.657 267.392C628.433 266.96 628.321 266.432 628.321 265.808C628.321 265.136 628.481 264.576 628.801 264.128C629.137 263.664 629.553 263.296 630.049 263.024C630.561 262.736 631.121 262.536 631.729 262.424C632.353 262.312 632.945 262.256 633.505 262.256C634.145 262.256 634.753 262.328 635.329 262.472C635.921 262.6 636.449 262.816 636.913 263.12C637.393 263.424 637.785 263.824 638.089 264.32C638.409 264.8 638.609 265.384 638.689 266.072H635.833C635.705 265.416 635.401 264.976 634.921 264.752C634.457 264.528 633.921 264.416 633.313 264.416C633.121 264.416 632.889 264.432 632.617 264.464C632.361 264.496 632.113 264.56 631.873 264.656C631.649 264.736 631.457 264.864 631.297 265.04C631.137 265.2 631.057 265.416 631.057 265.688C631.057 266.024 631.169 266.296 631.393 266.504C631.633 266.712 631.937 266.888 632.305 267.032C632.689 267.16 633.121 267.272 633.601 267.368C634.081 267.464 634.577 267.568 635.089 267.68C635.585 267.792 636.073 267.928 636.553 268.088C637.033 268.248 637.457 268.464 637.825 268.736C638.209 269.008 638.513 269.352 638.737 269.768C638.977 270.184 639.097 270.696 639.097 271.304C639.097 272.04 638.929 272.664 638.593 273.176C638.257 273.688 637.817 274.104 637.273 274.424C636.745 274.744 636.153 274.976 635.497 275.12C634.841 275.264 634.193 275.336 633.553 275.336C632.769 275.336 632.041 275.248 631.369 275.072C630.713 274.896 630.137 274.632 629.641 274.28C629.161 273.912 628.777 273.464 628.489 272.936C628.217 272.392 628.073 271.752 628.057 271.016H630.793Z" fill="black"/>
<rect x="41" y="237" width="247" height="56" rx="10" fill="white"/>
<circle cx="77.5" cy="265.5" r="16.5" fill="#BF1119"/>
<path d="M81.272 272H73.624C73.6347 271.072 73.8587 270.261 74.296 269.568C74.7333 268.875 75.3307 268.272 76.088 267.76C76.4507 267.493 76.8293 267.237 77.224 266.992C77.6187 266.736 77.9813 266.464 78.312 266.176C78.6427 265.888 78.9147 265.579 79.128 265.248C79.3413 264.907 79.4533 264.517 79.464 264.08C79.464 263.877 79.4373 263.664 79.384 263.44C79.3413 263.205 79.2507 262.992 79.112 262.8C78.9733 262.597 78.7813 262.432 78.536 262.304C78.2907 262.165 77.9707 262.096 77.576 262.096C77.2133 262.096 76.9093 262.171 76.664 262.32C76.4293 262.459 76.2373 262.656 76.088 262.912C75.9493 263.157 75.8427 263.451 75.768 263.792C75.704 264.133 75.6667 264.501 75.656 264.896H73.832C73.832 264.277 73.912 263.707 74.072 263.184C74.2427 262.651 74.4933 262.192 74.824 261.808C75.1547 261.424 75.5547 261.125 76.024 260.912C76.504 260.688 77.0587 260.576 77.688 260.576C78.3707 260.576 78.9413 260.688 79.4 260.912C79.8587 261.136 80.2267 261.419 80.504 261.76C80.792 262.101 80.9947 262.475 81.112 262.88C81.2293 263.275 81.288 263.653 81.288 264.016C81.288 264.464 81.2187 264.869 81.08 265.232C80.9413 265.595 80.7547 265.931 80.52 266.24C80.2853 266.539 80.0187 266.816 79.72 267.072C79.4213 267.328 79.112 267.568 78.792 267.792C78.472 268.016 78.152 268.229 77.832 268.432C77.512 268.635 77.2133 268.837 76.936 269.04C76.6693 269.243 76.4347 269.456 76.232 269.68C76.0293 269.893 75.8907 270.123 75.816 270.368H81.272V272Z" fill="white"/>
<path d="M124.408 257.864H127.6L134.2 275H130.984L129.376 270.464H122.536L120.928 275H117.832L124.408 257.864ZM123.352 268.184H128.584L126.016 260.816H125.944L123.352 268.184ZM134.2 262.592H136.264V258.872H139V262.592H141.472V264.632H139V271.256C139 271.544 139.008 271.792 139.024 272C139.056 272.208 139.112 272.384 139.192 272.528C139.288 272.672 139.424 272.784 139.6 272.864C139.776 272.928 140.016 272.96 140.32 272.96C140.512 272.96 140.704 272.96 140.896 272.96C141.088 272.944 141.28 272.912 141.472 272.864V274.976C141.168 275.008 140.872 275.04 140.584 275.072C140.296 275.104 140 275.12 139.696 275.12C138.976 275.12 138.392 275.056 137.944 274.928C137.512 274.784 137.168 274.584 136.912 274.328C136.672 274.056 136.504 273.72 136.408 273.32C136.328 272.92 136.28 272.464 136.264 271.952V264.632H134.2V262.592ZM142.192 262.592H144.256V258.872H146.992V262.592H149.464V264.632H146.992V271.256C146.992 271.544 147 271.792 147.016 272C147.048 272.208 147.104 272.384 147.184 272.528C147.28 272.672 147.416 272.784 147.592 272.864C147.768 272.928 148.008 272.96 148.312 272.96C148.504 272.96 148.696 272.96 148.888 272.96C149.08 272.944 149.272 272.912 149.464 272.864V274.976C149.16 275.008 148.864 275.04 148.576 275.072C148.288 275.104 147.992 275.12 147.688 275.12C146.968 275.12 146.384 275.056 145.936 274.928C145.504 274.784 145.16 274.584 144.904 274.328C144.664 274.056 144.496 273.72 144.4 273.32C144.32 272.92 144.272 272.464 144.256 271.952V264.632H142.192V262.592ZM159.952 267.704C159.92 267.272 159.824 266.856 159.664 266.456C159.52 266.056 159.312 265.712 159.04 265.424C158.784 265.12 158.464 264.88 158.08 264.704C157.712 264.512 157.296 264.416 156.832 264.416C156.352 264.416 155.912 264.504 155.512 264.68C155.128 264.84 154.792 265.072 154.504 265.376C154.232 265.664 154.008 266.008 153.832 266.408C153.672 266.808 153.584 267.24 153.568 267.704H159.952ZM153.568 269.504C153.568 269.984 153.632 270.448 153.76 270.896C153.904 271.344 154.112 271.736 154.384 272.072C154.656 272.408 155 272.68 155.416 272.888C155.832 273.08 156.328 273.176 156.904 273.176C157.704 273.176 158.344 273.008 158.824 272.672C159.32 272.32 159.688 271.8 159.928 271.112H162.52C162.376 271.784 162.128 272.384 161.776 272.912C161.424 273.44 161 273.888 160.504 274.256C160.008 274.608 159.448 274.872 158.824 275.048C158.216 275.24 157.576 275.336 156.904 275.336C155.928 275.336 155.064 275.176 154.312 274.856C153.56 274.536 152.92 274.088 152.392 273.512C151.88 272.936 151.488 272.248 151.216 271.448C150.96 270.648 150.832 269.768 150.832 268.808C150.832 267.928 150.968 267.096 151.24 266.312C151.528 265.512 151.928 264.816 152.44 264.224C152.968 263.616 153.6 263.136 154.336 262.784C155.072 262.432 155.904 262.256 156.832 262.256C157.808 262.256 158.68 262.464 159.448 262.88C160.232 263.28 160.88 263.816 161.392 264.488C161.904 265.16 162.272 265.936 162.496 266.816C162.736 267.68 162.8 268.576 162.688 269.504H153.568ZM164.768 262.592H167.36V264.416L167.408 264.464C167.824 263.776 168.368 263.24 169.04 262.856C169.712 262.456 170.456 262.256 171.272 262.256C172.632 262.256 173.704 262.608 174.488 263.312C175.272 264.016 175.664 265.072 175.664 266.48V275H172.928V267.2C172.896 266.224 172.688 265.52 172.304 265.088C171.92 264.64 171.32 264.416 170.504 264.416C170.04 264.416 169.624 264.504 169.256 264.68C168.888 264.84 168.576 265.072 168.32 265.376C168.064 265.664 167.864 266.008 167.72 266.408C167.576 266.808 167.504 267.232 167.504 267.68V275H164.768V262.592ZM190.237 275H187.645V273.32H187.597C187.229 274.04 186.693 274.56 185.989 274.88C185.285 275.184 184.541 275.336 183.757 275.336C182.781 275.336 181.925 275.168 181.189 274.832C180.469 274.48 179.869 274.008 179.389 273.416C178.909 272.824 178.549 272.128 178.309 271.328C178.069 270.512 177.949 269.64 177.949 268.712C177.949 267.592 178.101 266.624 178.405 265.808C178.709 264.992 179.109 264.32 179.605 263.792C180.117 263.264 180.693 262.88 181.333 262.64C181.989 262.384 182.653 262.256 183.325 262.256C183.709 262.256 184.101 262.296 184.501 262.376C184.901 262.44 185.285 262.552 185.653 262.712C186.021 262.872 186.357 263.08 186.661 263.336C186.981 263.576 187.245 263.864 187.453 264.2H187.501V257.864H190.237V275ZM180.685 268.928C180.685 269.456 180.749 269.976 180.877 270.488C181.021 271 181.229 271.456 181.501 271.856C181.789 272.256 182.149 272.576 182.581 272.816C183.013 273.056 183.525 273.176 184.117 273.176C184.725 273.176 185.245 273.048 185.677 272.792C186.125 272.536 186.485 272.2 186.757 271.784C187.045 271.368 187.253 270.904 187.381 270.392C187.525 269.864 187.597 269.328 187.597 268.784C187.597 267.408 187.285 266.336 186.661 265.568C186.053 264.8 185.221 264.416 184.165 264.416C183.525 264.416 182.981 264.552 182.533 264.824C182.101 265.08 181.741 265.424 181.453 265.856C181.181 266.272 180.981 266.752 180.853 267.296C180.741 267.824 180.685 268.368 180.685 268.928ZM198.653 257.864H212.525V260.456H207.077V275H204.077V260.456H198.653V257.864ZM211.924 262.592H214.492V264.992H214.54C214.62 264.656 214.772 264.328 214.996 264.008C215.236 263.688 215.516 263.4 215.836 263.144C216.172 262.872 216.54 262.656 216.94 262.496C217.34 262.336 217.748 262.256 218.164 262.256C218.484 262.256 218.7 262.264 218.812 262.28C218.94 262.296 219.068 262.312 219.196 262.328V264.968C219.004 264.936 218.804 264.912 218.596 264.896C218.404 264.864 218.212 264.848 218.02 264.848C217.556 264.848 217.116 264.944 216.7 265.136C216.3 265.312 215.948 265.584 215.644 265.952C215.34 266.304 215.1 266.744 214.924 267.272C214.748 267.8 214.66 268.408 214.66 269.096V275H211.924V262.592ZM218.994 262.592H221.994L225.234 271.856H225.282L228.426 262.592H231.282L226.458 275.672C226.234 276.232 226.01 276.768 225.786 277.28C225.578 277.792 225.314 278.24 224.994 278.624C224.69 279.024 224.306 279.336 223.842 279.56C223.378 279.8 222.786 279.92 222.066 279.92C221.426 279.92 220.794 279.872 220.17 279.776V277.472C220.394 277.504 220.61 277.536 220.818 277.568C221.026 277.616 221.242 277.64 221.466 277.64C221.786 277.64 222.05 277.6 222.258 277.52C222.466 277.44 222.634 277.32 222.762 277.16C222.906 277.016 223.026 276.84 223.122 276.632C223.218 276.424 223.306 276.184 223.386 275.912L223.698 274.952L218.994 262.592ZM238.495 275.336C237.503 275.336 236.615 275.176 235.831 274.856C235.063 274.52 234.407 274.064 233.863 273.488C233.335 272.912 232.927 272.224 232.639 271.424C232.367 270.624 232.231 269.744 232.231 268.784C232.231 267.84 232.367 266.968 232.639 266.168C232.927 265.368 233.335 264.68 233.863 264.104C234.407 263.528 235.063 263.08 235.831 262.76C236.615 262.424 237.503 262.256 238.495 262.256C239.487 262.256 240.367 262.424 241.135 262.76C241.919 263.08 242.575 263.528 243.103 264.104C243.647 264.68 244.055 265.368 244.327 266.168C244.615 266.968 244.759 267.84 244.759 268.784C244.759 269.744 244.615 270.624 244.327 271.424C244.055 272.224 243.647 272.912 243.103 273.488C242.575 274.064 241.919 274.52 241.135 274.856C240.367 275.176 239.487 275.336 238.495 275.336ZM238.495 273.176C239.103 273.176 239.631 273.048 240.079 272.792C240.527 272.536 240.895 272.2 241.183 271.784C241.471 271.368 241.679 270.904 241.807 270.392C241.951 269.864 242.023 269.328 242.023 268.784C242.023 268.256 241.951 267.728 241.807 267.2C241.679 266.672 241.471 266.208 241.183 265.808C240.895 265.392 240.527 265.056 240.079 264.8C239.631 264.544 239.103 264.416 238.495 264.416C237.887 264.416 237.359 264.544 236.911 264.8C236.463 265.056 236.095 265.392 235.807 265.808C235.519 266.208 235.303 266.672 235.159 267.2C235.031 267.728 234.967 268.256 234.967 268.784C234.967 269.328 235.031 269.864 235.159 270.392C235.303 270.904 235.519 271.368 235.807 271.784C236.095 272.2 236.463 272.536 236.911 272.792C237.359 273.048 237.887 273.176 238.495 273.176ZM257.93 275H255.242V273.272H255.194C254.858 273.896 254.354 274.4 253.682 274.784C253.026 275.152 252.354 275.336 251.666 275.336C250.034 275.336 248.85 274.936 248.114 274.136C247.394 273.32 247.034 272.096 247.034 270.464V262.592H249.77V270.2C249.77 271.288 249.978 272.056 250.394 272.504C250.81 272.952 251.394 273.176 252.146 273.176C252.722 273.176 253.202 273.088 253.586 272.912C253.97 272.736 254.282 272.504 254.522 272.216C254.762 271.912 254.93 271.552 255.026 271.136C255.138 270.72 255.194 270.272 255.194 269.792V262.592H257.93V275ZM259.567 262.592H261.631V258.872H264.367V262.592H266.839V264.632H264.367V271.256C264.367 271.544 264.375 271.792 264.391 272C264.423 272.208 264.479 272.384 264.559 272.528C264.655 272.672 264.791 272.784 264.967 272.864C265.143 272.928 265.383 272.96 265.687 272.96C265.879 272.96 266.071 272.96 266.263 272.96C266.455 272.944 266.647 272.912 266.839 272.864V274.976C266.535 275.008 266.239 275.04 265.951 275.072C265.663 275.104 265.367 275.12 265.063 275.12C264.343 275.12 263.759 275.056 263.311 274.928C262.879 274.784 262.535 274.584 262.279 274.328C262.039 274.056 261.871 273.72 261.775 273.32C261.695 272.92 261.647 272.464 261.631 271.952V264.632H259.567V262.592Z" fill="black"/>
<rect x="59" y="389" width="210" height="56" rx="10" fill="white"/>
<circle cx="93.5" cy="417.5" r="16.5" fill="#BF1119"/>
<path d="M92.648 417.44C92.9467 417.451 93.2453 417.429 93.544 417.376C93.8427 417.323 94.1093 417.232 94.344 417.104C94.5787 416.965 94.7653 416.779 94.904 416.544C95.0533 416.309 95.128 416.021 95.128 415.68C95.128 415.2 94.9627 414.816 94.632 414.528C94.312 414.24 93.896 414.096 93.384 414.096C93.064 414.096 92.7867 414.16 92.552 414.288C92.3173 414.416 92.12 414.592 91.96 414.816C91.8107 415.029 91.6987 415.275 91.624 415.552C91.5493 415.819 91.5173 416.096 91.528 416.384H89.704C89.7253 415.84 89.8267 415.339 90.008 414.88C90.1893 414.411 90.4347 414.005 90.744 413.664C91.064 413.323 91.448 413.056 91.896 412.864C92.344 412.672 92.8507 412.576 93.416 412.576C93.8533 412.576 94.28 412.64 94.696 412.768C95.1227 412.896 95.5013 413.083 95.832 413.328C96.1733 413.573 96.4453 413.888 96.648 414.272C96.8507 414.645 96.952 415.077 96.952 415.568C96.952 416.133 96.824 416.629 96.568 417.056C96.312 417.472 95.912 417.776 95.368 417.968V418C96.008 418.128 96.504 418.448 96.856 418.96C97.2187 419.461 97.4 420.075 97.4 420.8C97.4 421.333 97.2933 421.813 97.08 422.24C96.8667 422.656 96.5787 423.013 96.216 423.312C95.8533 423.6 95.432 423.824 94.952 423.984C94.472 424.144 93.9653 424.224 93.432 424.224C92.7813 424.224 92.2107 424.133 91.72 423.952C91.24 423.76 90.8347 423.493 90.504 423.152C90.184 422.811 89.9387 422.4 89.768 421.92C89.5973 421.44 89.5067 420.907 89.496 420.32H91.32C91.2987 421.003 91.464 421.573 91.816 422.032C92.1787 422.48 92.7173 422.704 93.432 422.704C94.04 422.704 94.5467 422.533 94.952 422.192C95.368 421.84 95.576 421.344 95.576 420.704C95.576 420.267 95.4907 419.92 95.32 419.664C95.1493 419.408 94.9253 419.216 94.648 419.088C94.3707 418.949 94.056 418.864 93.704 418.832C93.3627 418.8 93.0107 418.789 92.648 418.8V417.44Z" fill="white"/>
<path d="M135.824 409.864H148.16V412.456H138.824V416.944H147.464V419.392H138.824V424.408H148.328V427H135.824V409.864ZM149.333 414.592H152.309L155.453 424.12H155.501L158.525 414.592H161.357L156.917 427H153.845L149.333 414.592ZM173.395 424.24C173.395 424.576 173.435 424.816 173.515 424.96C173.611 425.104 173.787 425.176 174.043 425.176C174.123 425.176 174.219 425.176 174.331 425.176C174.443 425.176 174.571 425.16 174.715 425.128V427.024C174.619 427.056 174.491 427.088 174.331 427.12C174.187 427.168 174.035 427.208 173.875 427.24C173.715 427.272 173.555 427.296 173.395 427.312C173.235 427.328 173.099 427.336 172.987 427.336C172.427 427.336 171.963 427.224 171.595 427C171.227 426.776 170.987 426.384 170.875 425.824C170.331 426.352 169.659 426.736 168.859 426.976C168.075 427.216 167.315 427.336 166.579 427.336C166.019 427.336 165.483 427.256 164.971 427.096C164.459 426.952 164.003 426.736 163.603 426.448C163.219 426.144 162.907 425.768 162.667 425.32C162.443 424.856 162.331 424.32 162.331 423.712C162.331 422.944 162.467 422.32 162.739 421.84C163.027 421.36 163.395 420.984 163.843 420.712C164.307 420.44 164.819 420.248 165.379 420.136C165.955 420.008 166.531 419.912 167.107 419.848C167.603 419.752 168.075 419.688 168.523 419.656C168.971 419.608 169.363 419.536 169.699 419.44C170.051 419.344 170.323 419.2 170.515 419.008C170.723 418.8 170.827 418.496 170.827 418.096C170.827 417.744 170.739 417.456 170.563 417.232C170.403 417.008 170.195 416.84 169.939 416.728C169.699 416.6 169.427 416.52 169.123 416.488C168.819 416.44 168.531 416.416 168.259 416.416C167.491 416.416 166.859 416.576 166.363 416.896C165.867 417.216 165.587 417.712 165.523 418.384H162.787C162.835 417.584 163.027 416.92 163.363 416.392C163.699 415.864 164.123 415.44 164.635 415.12C165.163 414.8 165.755 414.576 166.411 414.448C167.067 414.32 167.739 414.256 168.427 414.256C169.035 414.256 169.635 414.32 170.227 414.448C170.819 414.576 171.347 414.784 171.811 415.072C172.291 415.36 172.675 415.736 172.963 416.2C173.251 416.648 173.395 417.2 173.395 417.856V424.24ZM170.659 420.784C170.243 421.056 169.731 421.224 169.123 421.288C168.515 421.336 167.907 421.416 167.299 421.528C167.011 421.576 166.731 421.648 166.459 421.744C166.187 421.824 165.947 421.944 165.739 422.104C165.531 422.248 165.363 422.448 165.235 422.704C165.123 422.944 165.067 423.24 165.067 423.592C165.067 423.896 165.155 424.152 165.331 424.36C165.507 424.568 165.715 424.736 165.955 424.864C166.211 424.976 166.483 425.056 166.771 425.104C167.075 425.152 167.347 425.176 167.587 425.176C167.891 425.176 168.219 425.136 168.571 425.056C168.923 424.976 169.251 424.84 169.555 424.648C169.875 424.456 170.139 424.216 170.347 423.928C170.555 423.624 170.659 423.256 170.659 422.824V420.784ZM176.41 409.864H179.146V427H176.41V409.864ZM193.023 427H190.336V425.272H190.288C189.952 425.896 189.448 426.4 188.776 426.784C188.12 427.152 187.448 427.336 186.76 427.336C185.128 427.336 183.944 426.936 183.208 426.136C182.488 425.32 182.128 424.096 182.128 422.464V414.592H184.864V422.2C184.864 423.288 185.072 424.056 185.488 424.504C185.904 424.952 186.488 425.176 187.24 425.176C187.816 425.176 188.296 425.088 188.68 424.912C189.064 424.736 189.376 424.504 189.616 424.216C189.856 423.912 190.024 423.552 190.12 423.136C190.232 422.72 190.288 422.272 190.288 421.792V414.592H193.023V427ZM206.301 424.24C206.301 424.576 206.341 424.816 206.421 424.96C206.517 425.104 206.693 425.176 206.949 425.176C207.029 425.176 207.125 425.176 207.237 425.176C207.349 425.176 207.477 425.16 207.621 425.128V427.024C207.525 427.056 207.397 427.088 207.237 427.12C207.093 427.168 206.941 427.208 206.781 427.24C206.621 427.272 206.461 427.296 206.301 427.312C206.141 427.328 206.005 427.336 205.893 427.336C205.333 427.336 204.869 427.224 204.501 427C204.133 426.776 203.893 426.384 203.781 425.824C203.237 426.352 202.565 426.736 201.765 426.976C200.981 427.216 200.221 427.336 199.485 427.336C198.925 427.336 198.389 427.256 197.877 427.096C197.365 426.952 196.909 426.736 196.509 426.448C196.125 426.144 195.813 425.768 195.573 425.32C195.349 424.856 195.237 424.32 195.237 423.712C195.237 422.944 195.373 422.32 195.645 421.84C195.933 421.36 196.301 420.984 196.749 420.712C197.213 420.44 197.725 420.248 198.285 420.136C198.861 420.008 199.437 419.912 200.013 419.848C200.509 419.752 200.981 419.688 201.429 419.656C201.877 419.608 202.269 419.536 202.605 419.44C202.957 419.344 203.229 419.2 203.421 419.008C203.629 418.8 203.733 418.496 203.733 418.096C203.733 417.744 203.645 417.456 203.469 417.232C203.309 417.008 203.101 416.84 202.845 416.728C202.605 416.6 202.333 416.52 202.029 416.488C201.725 416.44 201.437 416.416 201.165 416.416C200.397 416.416 199.765 416.576 199.269 416.896C198.773 417.216 198.493 417.712 198.429 418.384H195.693C195.741 417.584 195.933 416.92 196.269 416.392C196.605 415.864 197.029 415.44 197.541 415.12C198.069 414.8 198.661 414.576 199.317 414.448C199.973 414.32 200.645 414.256 201.333 414.256C201.941 414.256 202.541 414.32 203.133 414.448C203.725 414.576 204.253 414.784 204.717 415.072C205.197 415.36 205.581 415.736 205.869 416.2C206.157 416.648 206.301 417.2 206.301 417.856V424.24ZM203.565 420.784C203.149 421.056 202.637 421.224 202.029 421.288C201.421 421.336 200.813 421.416 200.205 421.528C199.917 421.576 199.637 421.648 199.365 421.744C199.093 421.824 198.853 421.944 198.645 422.104C198.437 422.248 198.269 422.448 198.141 422.704C198.029 422.944 197.973 423.24 197.973 423.592C197.973 423.896 198.061 424.152 198.237 424.36C198.413 424.568 198.621 424.736 198.861 424.864C199.117 424.976 199.389 425.056 199.677 425.104C199.981 425.152 200.253 425.176 200.493 425.176C200.797 425.176 201.125 425.136 201.477 425.056C201.829 424.976 202.157 424.84 202.461 424.648C202.781 424.456 203.045 424.216 203.253 423.928C203.461 423.624 203.565 423.256 203.565 422.824V420.784ZM207.997 414.592H210.061V410.872H212.797V414.592H215.269V416.632H212.797V423.256C212.797 423.544 212.805 423.792 212.821 424C212.853 424.208 212.909 424.384 212.989 424.528C213.085 424.672 213.221 424.784 213.397 424.864C213.573 424.928 213.813 424.96 214.117 424.96C214.309 424.96 214.501 424.96 214.693 424.96C214.885 424.944 215.077 424.912 215.269 424.864V426.976C214.965 427.008 214.669 427.04 214.381 427.072C214.093 427.104 213.797 427.12 213.493 427.12C212.773 427.12 212.189 427.056 211.741 426.928C211.309 426.784 210.965 426.584 210.709 426.328C210.469 426.056 210.301 425.72 210.205 425.32C210.125 424.92 210.077 424.464 210.061 423.952V416.632H207.997V414.592ZM217.309 409.864H220.045V412.456H217.309V409.864ZM217.309 414.592H220.045V427H217.309V414.592ZM228.714 427.336C227.722 427.336 226.834 427.176 226.05 426.856C225.282 426.52 224.626 426.064 224.082 425.488C223.554 424.912 223.146 424.224 222.858 423.424C222.586 422.624 222.45 421.744 222.45 420.784C222.45 419.84 222.586 418.968 222.858 418.168C223.146 417.368 223.554 416.68 224.082 416.104C224.626 415.528 225.282 415.08 226.05 414.76C226.834 414.424 227.722 414.256 228.714 414.256C229.706 414.256 230.586 414.424 231.354 414.76C232.138 415.08 232.794 415.528 233.322 416.104C233.866 416.68 234.274 417.368 234.546 418.168C234.834 418.968 234.978 419.84 234.978 420.784C234.978 421.744 234.834 422.624 234.546 423.424C234.274 424.224 233.866 424.912 233.322 425.488C232.794 426.064 232.138 426.52 231.354 426.856C230.586 427.176 229.706 427.336 228.714 427.336ZM228.714 425.176C229.322 425.176 229.85 425.048 230.298 424.792C230.746 424.536 231.114 424.2 231.402 423.784C231.69 423.368 231.898 422.904 232.026 422.392C232.17 421.864 232.242 421.328 232.242 420.784C232.242 420.256 232.17 419.728 232.026 419.2C231.898 418.672 231.69 418.208 231.402 417.808C231.114 417.392 230.746 417.056 230.298 416.8C229.85 416.544 229.322 416.416 228.714 416.416C228.106 416.416 227.578 416.544 227.13 416.8C226.682 417.056 226.314 417.392 226.026 417.808C225.738 418.208 225.522 418.672 225.378 419.2C225.25 419.728 225.186 420.256 225.186 420.784C225.186 421.328 225.25 421.864 225.378 422.392C225.522 422.904 225.738 423.368 226.026 423.784C226.314 424.2 226.682 424.536 227.13 424.792C227.578 425.048 228.106 425.176 228.714 425.176ZM237.253 414.592H239.845V416.416L239.893 416.464C240.309 415.776 240.853 415.24 241.525 414.856C242.197 414.456 242.941 414.256 243.757 414.256C245.117 414.256 246.189 414.608 246.973 415.312C247.757 416.016 248.148 417.072 248.148 418.48V427H245.413V419.2C245.381 418.224 245.173 417.52 244.789 417.088C244.405 416.64 243.805 416.416 242.989 416.416C242.525 416.416 242.109 416.504 241.741 416.68C241.373 416.84 241.061 417.072 240.805 417.376C240.549 417.664 240.349 418.008 240.205 418.408C240.061 418.808 239.989 419.232 239.989 419.68V427H237.253V414.592Z" fill="black"/>
</svg>